<svg width="60" height="60" viewBox="0 0 60 60" fill="none" xmlns="http://www.w3.org/2000/svg">
<path d="M56 36.9989H32C30.896 36.9989 30 37.8949 30 38.9989V54.9989C30 56.1029 30.896 56.9989 32 56.9989H56C57.104 56.9989 58 56.1029 58 54.9989V38.9989C58 37.8949 57.104 36.9989 56 36.9989Z" stroke="#FF671D" stroke-width="2" stroke-miterlimit="10"/>
<path d="M46 42.9989H42C41.447 42.9989 41 43.4459 41 43.9989V47.9989C41 48.5519 41.447 48.9989 42 48.9989H46C46.553 48.9989 47 48.5519 47 47.9989V43.9989C47 43.4459 46.553 42.9989 46 42.9989Z" stroke="#FF671D" stroke-width="2" stroke-miterlimit="10"/>
<path d="M49 36.9989V33.9989C49 33.4459 48.553 32.9989 48 32.9989H40C39.447 32.9989 39 33.4459 39 33.9989V36.9989" stroke="#FF671D" stroke-width="2" stroke-miterlimit="10"/>
<path d="M30.5371 37.6389L35.4081 45.0929C35.7771 45.6579 36.4071 45.9989 37.0821 45.9989H41.0001" stroke="#FF671D" stroke-width="2" stroke-miterlimit="10"/>
<path d="M57.463 37.6389L52.592 45.0929C52.223 45.6579 51.594 45.9989 50.918 45.9989H47" stroke="#FF671D" stroke-width="2" stroke-miterlimit="10"/>
<path d="M26.916 45.7979C25.963 45.9309 24.989 45.9989 24 45.9989C12.402 45.9989 3 36.5969 3 24.9989C3 13.4009 12.402 3.9989 24 3.9989C35.598 3.9989 45 13.4009 45 24.9989C45 26.6619 44.807 28.2809 44.441 29.8329" stroke="#333333" stroke-width="2" stroke-miterlimit="10"/>
<path d="M37.664 19.9989C37.852 19.9989 38 19.8429 38 19.6689C38 19.6279 37.994 19.5869 37.978 19.5459C35.797 13.9569 30.361 9.9989 24 9.9989C17.639 9.9989 12.203 13.9569 10.021 19.5459C10.006 19.5869 10 19.6279 10 19.6689C10 19.8429 10.148 19.9989 10.336 19.9989H37.664Z" stroke="#333333" stroke-width="2" stroke-miterlimit="10"/>
<path d="M3.66206 42.759C3.24506 42.281 2.84406 41.789 2.46106 41.283" stroke="#333333" stroke-width="2" stroke-miterlimit="10"/>
<path d="M19.9152 51.692C14.2582 50.833 9.17817 48.219 5.24817 44.424" stroke="#333333" stroke-width="2" stroke-miterlimit="10"/>
<path d="M24 51.999C23.364 51.999 22.734 51.978 22.109 51.934" stroke="#333333" stroke-width="2" stroke-miterlimit="10"/>
<path d="M50.936 23.1199C50.979 23.7409 51 24.3669 51 24.9989" stroke="#333333" stroke-width="2" stroke-miterlimit="10"/>
<path d="M43.4331 6.25391C47.2201 10.1789 49.8291 15.2489 50.6901 20.8929" stroke="#333333" stroke-width="2" stroke-miterlimit="10"/>
<path d="M40.2792 3.45691C40.7802 3.83591 41.2672 4.23091 41.7392 4.64391" stroke="#333333" stroke-width="2" stroke-miterlimit="10"/>
<path d="M19.5 24.9989C19.775 24.9989 20 25.2229 20 25.4989C20 25.6009 19.975 25.6979 19.918 25.7719L14.107 33.4119C13.826 33.7819 13.371 33.9999 12.906 33.9989C12.442 33.9979 11.992 33.7859 11.718 33.4109C10.097 31.1809 9.122 28.5569 9.002 25.5539C9.002 25.5339 9 25.5189 9 25.4989C9 25.2229 9.224 24.9989 9.5 24.9989H19.5Z" stroke="#333333" stroke-width="2" stroke-miterlimit="10"/>
<path d="M28.598 34.7399L24.337 29.1709C24.252 29.0589 24.128 28.9989 24 28.9989C23.875 28.9989 23.747 29.0609 23.662 29.1709L17.084 37.7729C17.029 37.8449 17 37.9299 17 38.0139C17 38.1579 17.076 38.2979 17.214 38.3689C19.252 39.4109 21.559 39.9989 24 39.9989C24.984 39.9989 25.947 39.9029 26.88 39.7209" stroke="#333333" stroke-width="2" stroke-miterlimit="10"/>
<path d="M38.473 28.9159C38.771 27.8539 38.95 26.7329 38.996 25.5539C38.998 25.5339 39 25.5189 39 25.4989C39 25.2229 38.775 24.9989 38.5 24.9989H28.5C28.224 24.9989 28 25.2229 28 25.4989C28 25.6009 28.025 25.6979 28.082 25.7719L33.356 32.7079" stroke="#333333" stroke-width="2" stroke-miterlimit="10"/>
</svg>
