<svg width="60" height="60" viewBox="0 0 60 60" fill="none" xmlns="http://www.w3.org/2000/svg">
<path d="M48.861 15.1569C52.08 19.2409 54 24.3959 54 29.9989C54 43.2539 43.255 53.9989 30 53.9989C16.745 53.9989 6 43.2539 6 29.9989C6 16.7439 16.745 5.9989 30 5.9989C34.678 5.9989 39.043 7.3369 42.733 9.6509" stroke="#333333" stroke-width="2" stroke-miterlimit="10"/>
<path d="M45.168 11.3979C45.725 11.8519 46.26 12.3319 46.773 12.8339" stroke="#333333" stroke-width="2" stroke-miterlimit="10"/>
<path d="M6.44702 14.8509C6.82602 14.2629 7.22502 13.6919 7.64602 13.1359" stroke="#333333" stroke-width="2" stroke-miterlimit="10"/>
<path d="M9.57788 10.8439C14.7519 5.3289 22.0389 1.9989 29.9999 1.9989" stroke="#333333" stroke-width="2" stroke-miterlimit="10"/>
<path d="M53.553 45.1469C53.174 45.7349 52.774 46.3059 52.354 46.8619" stroke="#333333" stroke-width="2" stroke-miterlimit="10"/>
<path d="M50.422 49.1539C45.248 54.6689 37.961 57.9989 30 57.9989" stroke="#333333" stroke-width="2" stroke-miterlimit="10"/>
<path d="M38.352 16.7939C36.563 10.2899 33.49 5.9989 30 5.9989C26.51 5.9989 23.437 10.2899 21.648 16.7939" stroke="#333333" stroke-width="2" stroke-miterlimit="10"/>
<path d="M37.383 46.1888C35.553 50.9888 32.923 53.9988 30 53.9988C27.076 53.9988 24.446 50.9888 22.618 46.1888" stroke="#333333" stroke-width="2" stroke-miterlimit="10"/>
<path d="M11.727 36.4819C8.156 34.7369 6 32.4729 6 29.9989C6 27.5249 8.156 25.2609 11.727 23.5159" stroke="#333333" stroke-width="2" stroke-miterlimit="10"/>
<path d="M48.272 23.5159C51.844 25.2609 54 27.5249 54 29.9989C54 32.4729 51.844 34.7369 48.272 36.4819" stroke="#333333" stroke-width="2" stroke-miterlimit="10"/>
<path d="M42 41.9989H18C16.896 41.9989 16 41.1029 16 39.9989V23.9989C16 22.8949 16.896 21.9989 18 21.9989H42C43.104 21.9989 44 22.8949 44 23.9989V39.9989C44 41.1029 43.104 41.9989 42 41.9989Z" stroke="#FF671D" stroke-width="2" stroke-miterlimit="10"/>
<path d="M25 21.9989V19.9989C25 18.3419 26.343 16.9989 28 16.9989H32C33.656 16.9989 35 18.3419 35 19.9989V21.9989" stroke="#FF671D" stroke-width="2" stroke-miterlimit="10"/>
<path d="M32 33.9989H28C27.447 33.9989 27 33.5519 27 32.9989V28.9989C27 28.4459 27.447 27.9989 28 27.9989H32C32.553 27.9989 33 28.4459 33 28.9989V32.9989C33 33.5519 32.553 33.9989 32 33.9989Z" stroke="#FF671D" stroke-width="2" stroke-miterlimit="10"/>
<path d="M16.4221 22.7749L22.4001 30.2479C22.7791 30.7229 23.3541 30.9989 23.9611 30.9989H27.0001" stroke="#FF671D" stroke-width="2" stroke-miterlimit="10"/>
<path d="M43.579 22.7749L37.6 30.2479C37.221 30.7229 36.646 30.9989 36.039 30.9989H33" stroke="#FF671D" stroke-width="2" stroke-miterlimit="10"/>
</svg>
