<svg width="24" height="24" fill="none" xmlns="http://www.w3.org/2000/svg"><path fill-rule="evenodd" clip-rule="evenodd" d="M7.75 8a4.25 4.25 0 118.5 0 4.25 4.25 0 01-8.5 0zM12 2.25a5.75 5.75 0 00-5.562 7.215A5.752 5.752 0 008 20.75a5.731 5.731 0 004-1.62 5.75 5.75 0 105.562-9.666A5.75 5.75 0 0012 2.25zm4.986 8.615a5.763 5.763 0 01-3.424 2.67 5.757 5.757 0 01-.624 4.413 4.25 4.25 0 104.048-7.083zm-4.923 2.885H12a5.748 5.748 0 01-4.987-2.885A4.252 4.252 0 008 19.25a4.243 4.243 0 003.42-1.726A4.23 4.23 0 0012.25 15a4.22 4.22 0 00-.187-1.25z" fill="#fff"/></svg>