<svg width="25" height="24" fill="none" xmlns="http://www.w3.org/2000/svg"><g clip-path="url(#clip0_72_618)" fill="#fff"><path d="M12.902 2.16c3.208 0 3.588.015 4.85.071 1.173.052 1.806.249 2.228.413.559.215.962.478 1.38.895.422.422.68.82.895 1.378.165.422.362 1.06.413 2.227.056 1.265.07 1.645.07 4.847 0 3.206-.014 3.586-.07 4.846-.051 1.172-.248 1.805-.413 2.227a3.701 3.701 0 01-.895 1.378c-.423.422-.821.68-1.38.895-.422.165-1.06.361-2.228.413-1.266.056-1.646.07-4.85.07-3.208 0-3.588-.014-4.85-.07-1.173-.052-1.806-.248-2.228-.413a3.713 3.713 0 01-1.38-.895 3.69 3.69 0 01-.895-1.378c-.165-.422-.362-1.06-.413-2.227-.056-1.265-.07-1.645-.07-4.846 0-3.207.014-3.586.07-4.847.051-1.172.248-1.805.413-2.227a3.71 3.71 0 01.896-1.378c.422-.422.82-.68 1.379-.895.422-.164 1.06-.361 2.228-.413 1.262-.056 1.642-.07 4.85-.07zm0-2.16c-3.26 0-3.668.014-4.949.07C6.677.127 5.8.333 5.04.628a5.861 5.861 0 00-2.13 1.388 5.88 5.88 0 00-1.388 2.123c-.295.764-.502 1.636-.558 2.911C.908 8.334.894 8.742.894 12s.014 3.666.07 4.945c.056 1.275.263 2.152.558 2.911.31.792.718 1.463 1.389 2.128a5.87 5.87 0 002.125 1.383c.764.296 1.637.502 2.913.558 1.28.056 1.688.07 4.948.07 3.26 0 3.668-.014 4.95-.07 1.275-.056 2.152-.262 2.912-.558a5.87 5.87 0 002.125-1.383 5.865 5.865 0 001.384-2.123c.295-.764.502-1.636.558-2.911.056-1.28.07-1.688.07-4.945 0-3.258-.014-3.666-.07-4.946-.056-1.275-.263-2.151-.558-2.91a5.62 5.62 0 00-1.375-2.133A5.87 5.87 0 0020.768.633C20.004.338 19.131.13 17.855.075 16.57.015 16.162 0 12.902 0z"/><path d="M12.902 5.836A6.168 6.168 0 006.734 12a6.168 6.168 0 006.168 6.164A6.168 6.168 0 0019.07 12a6.168 6.168 0 00-6.168-6.164zm0 10.162A4 4 0 018.901 12a4 4 0 014.001-3.998A4 4 0 0116.903 12a4 4 0 01-4.001 3.998zm7.852-10.406a1.44 1.44 0 11-2.88-.001 1.44 1.44 0 012.88.001z"/></g><defs><clipPath id="clip0_72_618"><path fill="#fff" transform="translate(.894)" d="M0 0h24.017v24H0z"/></clipPath></defs></svg>