<svg width="25" height="24" fill="none" xmlns="http://www.w3.org/2000/svg"><g clip-path="url(#clip0_72_619)"><path d="M23.174 0H2.71C1.729 0 .935.773.935 1.73v20.536c0 .956.793 1.734 1.774 1.734h20.465c.98 0 1.778-.778 1.778-1.73V1.73c0-.957-.797-1.73-1.778-1.73zM8.061 20.452H4.496V8.995H8.06v11.457zM6.278 7.434A2.064 2.064 0 014.21 5.372c0-1.14.924-2.063 2.068-2.063a2.063 2.063 0 110 4.125zm15.123 13.018h-3.56v-5.57c0-1.326-.024-3.037-1.853-3.037-1.853 0-2.134 1.449-2.134 2.944v5.663h-3.556V8.995h3.415v1.566h.047c.474-.9 1.637-1.852 3.368-1.852 3.607 0 4.273 2.372 4.273 5.457v6.286z" fill="#fff"/></g><defs><clipPath id="clip0_72_619"><path fill="#fff" transform="translate(.935)" d="M0 0h24.017v24H0z"/></clipPath></defs></svg>