<svg width="24" height="25" fill="none" xmlns="http://www.w3.org/2000/svg"><path d="M18.167 14.624c-.672-.147-1.203.17-1.674.447-.482.285-1.398 1.041-1.923.848-2.689-1.126-5.218-3.52-6.313-6.265-.193-.545.547-1.483.826-1.979.27-.48.576-1.025.436-1.713-.126-.619-1.754-2.726-2.33-3.302-.38-.38-.768-.59-1.168-.624-1.5-.065-3.177 1.972-3.472 2.46-.736 1.038-.732 2.421.013 4.098 1.795 4.503 8.585 11.3 13.03 13.194.82.39 1.57.586 2.245.586.659 0 1.246-.187 1.75-.558.381-.223 2.467-2.013 2.412-3.58-.033-.4-.238-.8-.608-1.187-.562-.591-2.62-2.296-3.224-2.425z" fill="#FF671D"/></svg>