<svg width="37" height="38" fill="none" xmlns="http://www.w3.org/2000/svg"><path fill-rule="evenodd" clip-rule="evenodd" d="M13.482 12.3h-.188c-.286.013-.598.166-.842.435-.245.27-.366.595-.351.88v.018l.001.004c.167 1.66.536 3.16 1.088 4.493l.819-.684c.397-.332.658-.552.847-.74.18-.178.254-.29.297-.39.031-.072.056-.147.073-.224.023-.105.03-.24-.01-.49a14.38 14.38 0 00-.25-1.097l-.295-1.179a4.766 4.766 0 00-.031-.122 1.25 1.25 0 00-1.158-.904zm.383 7.221l1.106-.924.023-.02c.368-.307.68-.568.92-.807.255-.255.47-.521.615-.857.069-.159.123-.324.16-.494.08-.357.065-.698.008-1.053-.054-.336-.152-.73-.268-1.195l-.008-.03-.294-1.178-.003-.012a2.75 2.75 0 00-2.589-2.15c-.049-.002-.1-.002-.167-.002h-.012c-.04 0-.069 0-.128.003-.753.033-1.423.414-1.887.925-.447.493-.755 1.164-.74 1.886l-.002.015v.05l.002.015v.012l.001.007v.008l.001.005c.216 2.213.77 4.208 1.644 5.948a13.01 13.01 0 005.88 5.88c1.74.874 3.734 1.427 5.947 1.643h.005l.005.001h.003l.008.001.012.001h.015l.015.001h.05c.721.013 1.392-.294 1.885-.741.512-.464.892-1.134.925-1.887.003-.06.003-.089.003-.128v-.012c0-.067 0-.119-.002-.167a2.75 2.75 0 00-2.15-2.589l-.011-.003-1.179-.295-.03-.007c-.464-.116-.859-.215-1.194-.268-.356-.057-.697-.073-1.054.007-.17.038-.334.092-.494.16-.335.146-.602.36-.856.615-.24.241-.5.553-.807.92l-.02.024-.925 1.106a11.445 11.445 0 01-4.413-4.414zm5.804 5.089c1.334.552 2.834.92 4.493 1.088h.022c.286.016.611-.106.88-.35.27-.244.422-.556.435-.842l.001-.032v-.157a1.25 1.25 0 00-.904-1.157 4.128 4.128 0 00-.123-.032l-1.179-.294a14.43 14.43 0 00-1.096-.25c-.25-.04-.385-.034-.49-.01a1.247 1.247 0 00-.225.073c-.099.043-.211.117-.39.297-.188.189-.407.45-.74.847l-.684.819zm4.658 2.561a.893.893 0 00.148-.058 1.265 1.265 0 00.109-.069 1.38 1.38 0 00.068-.058c.02-.02.057-.062.076-.086.02-.027.057-.086.074-.119a1.22 1.22 0 00.056-.154c.01-.043.02-.13.022-.174a.75.75 0 00-.17-.48c.16.534-.206 1.087-.383 1.198zm.25-1.325l-.015-.012a.768.768 0 00-.141-.078l-.003-.001c.043.02.101.053.16.09zM10.63 13.473c.11-.177.663-.543 1.197-.384a.75.75 0 00-1.198.384zm1.325-.251c.038.059.07.117.09.16v-.003a1.015 1.015 0 00-.04-.08.773.773 0 00-.05-.077z" fill="#333"/><path d="M18.8 36.2C9.3 36.2 1.6 28.5 1.6 19h-2c0 10.604 8.595 19.2 19.2 19.2v-2zM36 19c0 9.5-7.7 17.2-17.2 17.2v2C29.404 38.2 38 29.604 38 19h-2zM18.8 1.8C28.3 1.8 36 9.5 36 19h2C38 8.396 29.404-.2 18.8-.2v2zm0-2C8.195-.2-.4 8.396-.4 19h2c0-9.5 7.7-17.2 17.2-17.2v-2z" fill="#fff"/></svg>