<svg width="16" height="16" fill="none" xmlns="http://www.w3.org/2000/svg"><path fill-rule="evenodd" clip-rule="evenodd" d="M3.167 6.765c0-1.678.613-2.898 1.502-3.703C5.566 2.249 6.776 1.833 8 1.833c1.224 0 2.434.416 3.331 1.229.89.805 1.502 2.025 1.502 3.703 0 1.524-.637 2.916-1.49 4.095-.853 1.177-1.897 2.107-2.648 2.696-.476.372-.555.409-.695.409-.14 0-.218-.037-.694-.41-.752-.588-1.796-1.518-2.648-2.695-.854-1.179-1.491-2.57-1.491-4.095zm10.666 0c0-1.943-.72-3.438-1.83-4.444C10.9 1.323 9.442.833 8 .833c-1.442 0-2.9.49-4.002 1.488-1.111 1.006-1.831 2.501-1.831 4.444 0 1.808.755 3.403 1.68 4.681.928 1.28 2.049 2.276 2.842 2.897l.064.05c.376.296.726.571 1.247.571.52 0 .871-.275 1.248-.571l.063-.05c.793-.621 1.915-1.617 2.841-2.897.926-1.278 1.681-2.873 1.681-4.68zM6.5 6.667a1.5 1.5 0 113 0 1.5 1.5 0 01-3 0zm1.5-2.5a2.5 2.5 0 100 5 2.5 2.5 0 000-5z" fill="#000"/></svg>