<svg width="25" height="24" fill="none" xmlns="http://www.w3.org/2000/svg"><g clip-path="url(#clip0_72_617)"><path d="M8.407 21.75c9.061 0 14.018-7.503 14.018-14.008 0-.21-.005-.426-.014-.637a10.004 10.004 0 002.458-2.55 9.72 9.72 0 01-2.828.774 4.951 4.951 0 002.166-2.723 9.909 9.909 0 01-3.128 1.195 4.935 4.935 0 00-8.4 4.49A14.002 14.002 0 012.527 3.15a4.926 4.926 0 001.525 6.57 4.936 4.936 0 01-2.233-.614v.061a4.92 4.92 0 003.954 4.828 4.9 4.9 0 01-2.223.085 4.934 4.934 0 004.6 3.421A9.886 9.886 0 01.852 19.54a13.986 13.986 0 007.555 2.211z" fill="#fff"/></g><defs><clipPath id="clip0_72_617"><path fill="#fff" transform="translate(.852)" d="M0 0h24.017v24H0z"/></clipPath></defs></svg>