<svg width="60" height="60" fill="none" xmlns="http://www.w3.org/2000/svg"><path d="M48.861 15.157A23.893 23.893 0 0154 29.999c0 13.255-10.745 24-24 24s-24-10.745-24-24 10.745-24 24-24c4.678 0 9.043 1.338 12.733 3.652m2.435 1.747c.557.454 1.092.934 1.605 1.436M6.447 14.85c.379-.587.778-1.158 1.199-1.714m1.932-2.292A27.918 27.918 0 0130 1.999m23.553 43.148a28.113 28.113 0 01-1.199 1.715m-1.932 2.292A27.918 27.918 0 0130 57.999" stroke="#333" stroke-width="2" stroke-miterlimit="10"/><path d="M38.352 16.794C36.563 10.29 33.49 5.999 30 5.999s-6.563 4.29-8.352 10.795m15.735 29.395c-1.83 4.8-4.46 7.81-7.383 7.81-2.924 0-5.554-3.01-7.382-7.81m-10.891-9.707C8.156 34.737 6 32.472 6 29.999c0-2.474 2.156-4.738 5.727-6.483m36.545 0C51.844 25.26 54 27.525 54 29.999c0 2.474-2.156 4.738-5.728 6.483" stroke="#333" stroke-width="2" stroke-miterlimit="10"/><path d="M42 41.999H18a2 2 0 01-2-2v-16a2 2 0 012-2h24a2 2 0 012 2v16a2 2 0 01-2 2zm-17-20v-2a3 3 0 013-3h4a3 3 0 013 3v2" stroke="#FF671D" stroke-width="2" stroke-miterlimit="10"/><path d="M32 33.999h-4a1 1 0 01-1-1v-4a1 1 0 011-1h4a1 1 0 011 1v4a1 1 0 01-1 1z" stroke="#FF671D" stroke-width="2" stroke-miterlimit="10"/><path d="M16.422 22.775l5.978 7.473c.38.475.954.75 1.561.75h3.04m16.578-8.223L37.6 30.248a1.997 1.997 0 01-1.561.75H33" stroke="#FF671D" stroke-width="2" stroke-miterlimit="10"/></svg>