<svg width="60" height="60" fill="none" xmlns="http://www.w3.org/2000/svg"><path d="M56 36.999H32a2 2 0 00-2 2v16a2 2 0 002 2h24a2 2 0 002-2v-16a2 2 0 00-2-2z" stroke="#FF671D" stroke-width="2" stroke-miterlimit="10"/><path d="M46 42.999h-4a1 1 0 00-1 1v4a1 1 0 001 1h4a1 1 0 001-1v-4a1 1 0 00-1-1zm3-6v-3a1 1 0 00-1-1h-8a1 1 0 00-1 1v3m-8.463.64l4.871 7.454a2 2 0 001.674.906H41m16.463-8.36l-4.871 7.454a1.999 1.999 0 01-1.674.906H47" stroke="#FF671D" stroke-width="2" stroke-miterlimit="10"/><path d="M26.916 45.798c-.953.133-1.927.2-2.916.2-11.598 0-21-9.401-21-21 0-11.597 9.402-21 21-21s21 9.403 21 21c0 1.664-.193 3.283-.559 4.835" stroke="#333" stroke-width="2" stroke-miterlimit="10"/><path d="M37.664 19.999a.337.337 0 00.314-.453C35.797 13.956 30.361 9.999 24 9.999s-11.797 3.958-13.979 9.547a.337.337 0 00.315.453h27.328zM3.662 42.759a26.92 26.92 0 01-1.2-1.476m17.453 10.409a26.922 26.922 0 01-14.667-7.268M24 51.999c-.636 0-1.266-.021-1.891-.065M50.936 23.12c.043.62.064 1.247.064 1.879M43.433 6.254a26.92 26.92 0 017.257 14.639M40.28 3.457c.5.379.987.774 1.46 1.187M19.5 24.999a.5.5 0 01.418.773l-5.811 7.64c-.281.37-.736.588-1.201.587a1.475 1.475 0 01-1.188-.588c-1.621-2.23-2.596-4.854-2.716-7.857L9 25.499a.5.5 0 01.5-.5h10zm9.098 9.741l-4.261-5.57A.422.422 0 0024 29a.434.434 0 00-.338.172l-6.578 8.602a.397.397 0 00.13.596A14.866 14.866 0 0024 39.999c.984 0 1.947-.096 2.88-.278m11.593-10.805a14.5 14.5 0 00.523-3.362c.002-.02.004-.035.004-.055a.5.5 0 00-.5-.5h-10a.5.5 0 00-.418.773l5.274 6.936" stroke="#333" stroke-width="2" stroke-miterlimit="10"/></svg>