<svg width="60" height="60" fill="none" xmlns="http://www.w3.org/2000/svg"><g clip-path="url(#clip0_51_43)" stroke-width="2" stroke-miterlimit="10"><path d="M25 14.999v5.5c0 4.143 3.357 7.5 7.5 7.5s7.5-3.357 7.5-7.5v-8.406a6.095 6.095 0 00-6.094-6.094H33c-5 0-7-4-7-4s-3 2-3 5 2 6 7 6m-5 3v-4.534" stroke="#333"/><path d="M50 59.999V45.132c0-3.777-2.074-7.25-5.399-9.04L37 31.999l-1.521-4.615M43 47.999v12" stroke="#333"/><path d="M37 31.999l-4.5 3 3.5 5 6-5.308" stroke="#FF671D"/><path d="M22 59.999v-10.22A7.46 7.46 0 0017.658 43l-11.74-5.402C4.42 36.909 4 35.775 4 34.499c0-.787.26-1.514.698-2.098l9.9-13.201a3 3 0 014.908 3.448l-6.535 9.91L23 34.692 28 32l1.521-4.615" stroke="#333"/><path d="M17.039 17.999l-.881-1.762a1.503 1.503 0 01.656-2.007l2.109-1.072a1.471 1.471 0 011.984.664l4.434 8.919m1.047 2.106l.454.914a1.504 1.504 0 01-.656 2.007l-2.109 1.072a1.47 1.47 0 01-1.984-.664l-2.678-5.387M51 17.999v5m0 4v5m7-7h-5m-4 0h-5m-36-22v4m0 4v4m6-6h-4m-4 0H2M23 34.69L29 40l3.5-5-4.5-3" stroke="#FF671D"/></g><defs><clipPath id="clip0_51_43"><path fill="#fff" transform="translate(0 -.001)" d="M0 0h60v60H0z"/></clipPath></defs></svg>