<svg width="60" height="60" fill="none" xmlns="http://www.w3.org/2000/svg"><path d="M30 3c6.075 0 11 4.925 11 11 0 3.226-1.154 6.347-3.254 8.796l-2.265 2.642c-.31.363-.481.824-.481 1.302V30a1 1 0 01-1 1h-8a1 1 0 01-1-1v-3.26c0-.477-.171-.939-.481-1.302l-2.265-2.642A13.514 13.514 0 0119 14c0-6.075 4.925-11 11-11v0zm-5 24h7" stroke="#FF671D" stroke-width="2" stroke-miterlimit="10"/><path d="M30 58V44M7 10h5M9.399 2.399l3.202 3.202m-3.202 12l3.202-3.202" stroke="#000" stroke-width="2" stroke-miterlimit="10"/><path d="M27.399 21.601L34 15h-8l6.601-6.6" stroke="#FF671D" stroke-width="2" stroke-miterlimit="10"/><path d="M53 10h-5m2.601-7.601l-3.202 3.202m3.202 12l-3.202-3.202M49 40.97V50a1 1 0 01-.638.932l-18 7a.987.987 0 01-.729 0l-18-7A1.001 1.001 0 0111 50v-9.03M49 31l-19 7-19-7m0 0l9.813-3.422M49 31l-9.812-3.422" stroke="#000" stroke-width="2" stroke-miterlimit="10"/><path d="M30 38l-7.273 7.687a.997.997 0 01-1.15.22l-15-7a1.002 1.002 0 01-.378-1.506L11 31l-3.76-4.35a1 1 0 01.424-1.592l9.135-3.263M30 38l7.273 7.687a.997.997 0 001.15.22l15-7a1.002 1.002 0 00.378-1.506L49 31l3.76-4.35a1 1 0 00-.424-1.592l-9.135-3.263" stroke="#000" stroke-width="2" stroke-miterlimit="10"/></svg>