<svg width="60" height="60" fill="none" xmlns="http://www.w3.org/2000/svg"><path d="M48 49H36a2 2 0 01-2-2v-8a2 2 0 012-2h12a2 2 0 012 2v8a2 2 0 01-2 2zm-9-12v-3a1 1 0 011-1h4a1 1 0 011 1v3" stroke="#FF671D" stroke-width="2" stroke-miterlimit="10"/><path d="M49.155 37.37L45.6 42.188c-.377.51-.975.812-1.61.812h-3.98a2 2 0 01-1.609-.813l-3.556-4.817" stroke="#FF671D" stroke-width="2" stroke-miterlimit="10"/><path d="M19 49a5 5 0 100-10 5 5 0 000 10zm-8.516-10.246c.328-.531.705-1.029 1.123-1.488m1.831-1.578A9.954 9.954 0 0119 34c.934 0 1.836.128 2.693.367" stroke="#000" stroke-width="2" stroke-miterlimit="10"/><path d="M20 43h-2v2h2v-2z" fill="#000"/><path d="M23.9 43h4.135M7 49h22.873M5 49H3m51-38H26.191c-2.02 0-3.934.906-5.213 2.47L14 22l-9.441 5.508A5.157 5.157 0 002 31.962v7.996A3.04 3.04 0 005.041 43H14.1M56 11h2m0 6h-2m-2 0H39m19 6h-2m-2 0h-8" stroke="#000" stroke-width="2" stroke-miterlimit="10"/><path d="M10 24.333V30a3 3 0 01-3 3H2m30-12v-5a1 1 0 00-1-1h-4.81c-.819 0-1.595.368-2.114 1.002l-5.98 7.309a.422.422 0 00.326.689H32m0-4v8M11 53h2m2 0h11M45 7h-2m-2 0H9" stroke="#000" stroke-width="2" stroke-miterlimit="10"/><path d="M42 46v-3m-7.766-12.65c.471-.315.963-.603 1.473-.859m2.601-.999A14.003 14.003 0 0142 28c7.732 0 14 6.268 14 14s-6.268 14-14 14-14-6.268-14-14c0-3.686 1.424-7.038 3.751-9.537" stroke="#FF671D" stroke-width="2" stroke-miterlimit="10"/></svg>