<svg width="60" height="60" fill="none" xmlns="http://www.w3.org/2000/svg"><path d="M31 7V5a2 2 0 012-2h22a2 2 0 012 2v16a2 2 0 01-2 2h-2l-8 4.797V23h-3" stroke="#FF671D" stroke-width="2" stroke-miterlimit="10"/><path d="M27 42.154V47c5.844 1 11.225 2.862 16.506 10.675M19 42.082V47c-5.844 1-11.225 2.862-16.506 10.675" stroke="#000" stroke-width="2" stroke-miterlimit="10"/><path d="M11 49.525S16 53 23 53s12-3.475 12-3.475m-1.889-4.534c2.216-.192 6.185-.998 9.178-3.991C38.892 38 39 32 39 27S38 9 23 9 7 22 7 27s.108 11-3.288 14c2.993 2.993 6.962 3.799 9.178 3.991" stroke="#000" stroke-width="2" stroke-miterlimit="10"/><path d="M45 12h-2v2h2v-2zm5 0h-2v2h2v-2zm-10 0h-2v2h2v-2z" fill="#FF671D"/><path d="M48 32v12m0 2v3" stroke="#000" stroke-width="2" stroke-miterlimit="10"/><path d="M5 8H3v2h2V8zm0 4H3v2h2v-2zm0 4H3v2h2v-2z" fill="#000"/><path d="M19.594 14.265C22.959 21.708 28.003 26.002 34 27c-.414 6.514-2.463 16-11 16-6.565 0-9.212-6.055-10.28-12" stroke="#000" stroke-width="2" stroke-miterlimit="10"/><path d="M13.144 32.998C12 28.355 12 23.351 12 21c4 0 6.479-.75 9.185-3.657" stroke="#000" stroke-width="2" stroke-miterlimit="10"/></svg>