<svg width="64" height="64" viewBox="0 0 64 64" fill="none" xmlns="http://www.w3.org/2000/svg">
<path fill-rule="evenodd" clip-rule="evenodd" d="M9.5 32C9.5 19.5736 19.5736 9.5 32 9.5C35.5948 9.5 38.9887 10.3419 41.9991 11.838C42.741 12.2067 43.6413 11.9041 44.0099 11.1623C44.3786 10.4204 44.0761 9.52012 43.3342 9.15145C39.9182 7.45384 36.0683 6.5 32 6.5C17.9167 6.5 6.5 17.9167 6.5 32C6.5 46.0833 17.9167 57.5 32 57.5C46.0833 57.5 57.5 46.0833 57.5 32C57.5 31.0435 57.4473 30.0987 57.3444 29.1685C57.2534 28.3451 56.5121 27.7514 55.6887 27.8424C54.8653 27.9334 54.2716 28.6747 54.3626 29.4981C54.4534 30.3191 54.5 31.1538 54.5 32C54.5 44.4264 44.4264 54.5 32 54.5C19.5736 54.5 9.5 44.4264 9.5 32ZM57.0607 14.394C57.6464 13.8082 57.6464 12.8585 57.0607 12.2727C56.4749 11.6869 55.5251 11.6869 54.9393 12.2727L32 35.212L25.0607 28.2727C24.4749 27.6869 23.5251 27.6869 22.9393 28.2727C22.3536 28.8585 22.3536 29.8082 22.9393 30.394L30.9393 38.394C31.2206 38.6753 31.6022 38.8333 32 38.8333C32.3978 38.8333 32.7794 38.6753 33.0607 38.394L57.0607 14.394Z" fill="#FF671D"/>
</svg>
