<svg width="24" height="24" viewBox="0 0 24 24" fill="none" xmlns="http://www.w3.org/2000/svg">
<path fill-rule="evenodd" clip-rule="evenodd" d="M7.75 8C7.75 5.65279 9.65279 3.75 12 3.75C14.3472 3.75 16.25 5.65279 16.25 8C16.25 10.3472 14.3472 12.25 12 12.25C9.65279 12.25 7.75 10.3472 7.75 8ZM12 2.25C8.82436 2.25 6.25 4.82436 6.25 8C6.25 8.50625 6.31542 8.99721 6.43827 9.46491C4.0216 10.1456 2.25 12.3652 2.25 15.0001C2.25 18.1757 4.82436 20.7501 8 20.7501C9.55457 20.7501 10.965 20.1332 12 19.1308C13.0343 20.1324 14.445 20.7501 15.9999 20.7501C19.1755 20.7501 21.7499 18.1757 21.7499 15.0001C21.7499 12.3652 19.9783 10.1457 17.5617 9.46494C17.6846 8.99723 17.75 8.50626 17.75 8C17.75 4.82436 15.1756 2.25 12 2.25ZM16.9865 10.865C16.2457 12.1516 15.0213 13.1244 13.5616 13.5354C13.6846 14.0035 13.75 14.4945 13.75 15.0001C13.75 16.0775 13.4537 17.0857 12.9381 17.9476C13.7119 18.7514 14.7976 19.2501 15.9999 19.2501C18.3471 19.2501 20.2499 17.3473 20.2499 15.0001C20.2499 12.9931 18.858 11.3096 16.9865 10.865ZM12.0633 13.7497C12.0422 13.7499 12.0211 13.75 12 13.75C9.86756 13.75 8.00624 12.5892 7.01347 10.865C5.14191 11.3095 3.75 12.9931 3.75 15.0001C3.75 17.3473 5.65279 19.2501 8 19.2501C9.37868 19.2501 10.604 18.5936 11.3805 17.5762C11.3927 17.5584 11.4058 17.541 11.4196 17.5242C11.9415 16.8184 12.25 15.9453 12.25 15.0001C12.25 14.5641 12.1846 14.1444 12.0633 13.7497Z" fill="white"/>
</svg>
