<svg width="16" height="16" viewBox="0 0 16 16" fill="none" xmlns="http://www.w3.org/2000/svg">
<path fill-rule="evenodd" clip-rule="evenodd" d="M6.66672 2.16667L6.57312 2.16666C5.42236 2.16655 4.74161 2.16649 4.1687 2.32C2.61579 2.7361 1.40282 3.94907 0.986719 5.50198C0.833208 6.0749 0.833272 6.75564 0.83338 7.9064L0.833386 8L0.83338 8.0936C0.833272 9.24436 0.833208 9.92511 0.986719 10.498C1.40282 12.0509 2.61579 13.2639 4.1687 13.68C4.74161 13.8335 5.42236 13.8334 6.57312 13.8333L6.66671 13.8333H9.33339L9.42698 13.8333C10.5777 13.8334 11.2585 13.8335 11.8314 13.68C13.3843 13.2639 14.5973 12.0509 15.0134 10.498C15.1669 9.92511 15.1668 9.24436 15.1667 8.0936L15.1667 8L15.1667 7.9064C15.1668 6.75564 15.1669 6.0749 15.0134 5.50198C14.5973 3.94907 13.3843 2.7361 11.8314 2.32C11.2585 2.16649 10.5777 2.16655 9.42699 2.16666L9.33339 2.16667H6.66672ZM4.42752 3.28593C4.85657 3.17096 5.39457 3.16667 6.66672 3.16667H9.33339C10.6055 3.16667 11.1435 3.17096 11.5726 3.28593C12.7804 3.60956 13.7238 4.55298 14.0475 5.7608C14.1624 6.18986 14.1667 6.72785 14.1667 8C14.1667 9.27215 14.1624 9.81014 14.0475 10.2392C13.7238 11.447 12.7804 12.3904 11.5726 12.7141C11.1435 12.829 10.6055 12.8333 9.33339 12.8333H6.66671C5.39456 12.8333 4.85657 12.829 4.42752 12.7141C3.2197 12.3904 2.27628 11.447 1.95264 10.2392C1.83768 9.81014 1.83339 9.27215 1.83339 8C1.83339 6.72785 1.83768 6.18986 1.95264 5.7608C2.27628 4.55298 3.2197 3.60956 4.42752 3.28593ZM4.2774 4.91731C4.04764 4.76413 3.7372 4.82622 3.58403 5.05598C3.43085 5.28575 3.49294 5.59618 3.7227 5.74936L7.7227 8.41603C7.89065 8.52799 8.10945 8.52799 8.2774 8.41603L12.2774 5.74936C12.5072 5.59618 12.5693 5.28575 12.4161 5.05598C12.2629 4.82622 11.9525 4.76413 11.7227 4.91731L8.00005 7.39908L4.2774 4.91731Z" fill="#000000"/>
</svg>
