<svg width="25" height="24" viewBox="0 0 25 24" fill="none" xmlns="http://www.w3.org/2000/svg">
<g clip-path="url(#clip0_72_618)">
<path d="M12.902 2.16094C16.1105 2.16094 16.4904 2.175 17.7523 2.23125C18.9249 2.28281 19.5582 2.47969 19.9804 2.64375C20.5386 2.85938 20.942 3.12188 21.3595 3.53906C21.7816 3.96094 22.0396 4.35938 22.2554 4.91719C22.4196 5.33906 22.6166 5.97656 22.6682 7.14375C22.7245 8.40937 22.7385 8.78906 22.7385 11.9906C22.7385 15.1969 22.7245 15.5766 22.6682 16.8375C22.6166 18.0094 22.4196 18.6422 22.2554 19.0641C22.0396 19.6219 21.7769 20.025 21.3595 20.4422C20.9373 20.8641 20.5386 21.1219 19.9804 21.3375C19.5582 21.5016 18.9203 21.6984 17.7523 21.75C16.4858 21.8062 16.1058 21.8203 12.902 21.8203C9.69354 21.8203 9.31359 21.8062 8.05177 21.75C6.87908 21.6984 6.24583 21.5016 5.82366 21.3375C5.26546 21.1219 4.86206 20.8594 4.44458 20.4422C4.02241 20.0203 3.76442 19.6219 3.54865 19.0641C3.38447 18.6422 3.18746 18.0047 3.13586 16.8375C3.07957 15.5719 3.0655 15.1922 3.0655 11.9906C3.0655 8.78438 3.07957 8.40469 3.13586 7.14375C3.18746 5.97187 3.38447 5.33906 3.54865 4.91719C3.76442 4.35938 4.0271 3.95625 4.44458 3.53906C4.86675 3.11719 5.26546 2.85938 5.82366 2.64375C6.24583 2.47969 6.88377 2.28281 8.05177 2.23125C9.31359 2.175 9.69354 2.16094 12.902 2.16094ZM12.902 0C9.64194 0 9.23384 0.0140625 7.95327 0.0703125C6.67738 0.126563 5.80021 0.332812 5.04031 0.628125C4.24757 0.9375 3.57679 1.34531 2.9107 2.01562C2.23992 2.68125 1.83183 3.35156 1.52224 4.13906C1.22672 4.90313 1.02033 5.775 0.964038 7.05C0.907749 8.33437 0.893677 8.74219 0.893677 12C0.893677 15.2578 0.907749 15.6656 0.964038 16.9453C1.02033 18.2203 1.22672 19.0969 1.52224 19.8563C1.83183 20.6484 2.23992 21.3188 2.9107 21.9844C3.57679 22.65 4.24757 23.0625 5.03562 23.3672C5.80021 23.6625 6.67269 23.8687 7.94858 23.925C9.22915 23.9812 9.63725 23.9953 12.8973 23.9953C16.1574 23.9953 16.5655 23.9812 17.8461 23.925C19.122 23.8687 19.9991 23.6625 20.759 23.3672C21.5471 23.0625 22.2179 22.65 22.8839 21.9844C23.55 21.3188 23.9628 20.6484 24.2677 19.8609C24.5632 19.0969 24.7696 18.225 24.8259 16.95C24.8822 15.6703 24.8963 15.2625 24.8963 12.0047C24.8963 8.74688 24.8822 8.33906 24.8259 7.05938C24.7696 5.78438 24.5632 4.90781 24.2677 4.14844C23.9722 3.35156 23.5641 2.68125 22.8933 2.01562C22.2272 1.35 21.5565 0.9375 20.7684 0.632812C20.0038 0.3375 19.1313 0.13125 17.8555 0.075C16.5702 0.0140625 16.1621 0 12.902 0Z" fill="white"/>
<path d="M12.902 5.83594C9.4965 5.83594 6.73364 8.59688 6.73364 12C6.73364 15.4031 9.4965 18.1641 12.902 18.1641C16.3075 18.1641 19.0703 15.4031 19.0703 12C19.0703 8.59688 16.3075 5.83594 12.902 5.83594ZM12.902 15.9984C10.6926 15.9984 8.90077 14.2078 8.90077 12C8.90077 9.79219 10.6926 8.00156 12.902 8.00156C15.1113 8.00156 16.9032 9.79219 16.9032 12C16.9032 14.2078 15.1113 15.9984 12.902 15.9984Z" fill="white"/>
<path d="M20.7544 5.59238C20.7544 6.38926 20.1071 7.03145 19.3143 7.03145C18.5169 7.03145 17.8743 6.38457 17.8743 5.59238C17.8743 4.79551 18.5216 4.15332 19.3143 4.15332C20.1071 4.15332 20.7544 4.8002 20.7544 5.59238Z" fill="white"/>
</g>
<defs>
<clipPath id="clip0_72_618">
<rect width="24.0167" height="24" fill="white" transform="translate(0.893677)"/>
</clipPath>
</defs>
</svg>
