<svg width="25" height="24" viewBox="0 0 25 24" fill="none" xmlns="http://www.w3.org/2000/svg">
<g clip-path="url(#clip0_72_619)">
<path d="M23.1743 0H2.70853C1.72816 0 0.935425 0.773438 0.935425 1.72969V22.2656C0.935425 23.2219 1.72816 24 2.70853 24H23.1743C24.1547 24 24.9521 23.2219 24.9521 22.2703V1.72969C24.9521 0.773438 24.1547 0 23.1743 0ZM8.06068 20.4516H4.49571V8.99531H8.06068V20.4516ZM6.2782 7.43438C5.13365 7.43438 4.20957 6.51094 4.20957 5.37187C4.20957 4.23281 5.13365 3.30937 6.2782 3.30937C7.41805 3.30937 8.34213 4.23281 8.34213 5.37187C8.34213 6.50625 7.41805 7.43438 6.2782 7.43438ZM21.4012 20.4516H17.8409V14.8828C17.8409 13.5562 17.8175 11.8453 15.9881 11.8453C14.1352 11.8453 13.8538 13.2937 13.8538 14.7891V20.4516H10.2982V8.99531H13.713V10.5609H13.76C14.2337 9.66094 15.397 8.70938 17.1279 8.70938C20.7351 8.70938 21.4012 11.0813 21.4012 14.1656V20.4516Z" fill="white"/>
</g>
<defs>
<clipPath id="clip0_72_619">
<rect width="24.0167" height="24" fill="white" transform="translate(0.935425)"/>
</clipPath>
</defs>
</svg>
