<svg width="38" height="38" viewBox="0 0 37 38" fill="none" xmlns="http://www.w3.org/2000/svg">
<path fill-rule="evenodd" clip-rule="evenodd" d="M13.4823 12.3003C13.4636 12.2996 13.4402 12.2995 13.3558 12.2995L13.3252 12.2996C13.3199 12.2997 13.3116 12.2999 13.294 12.3007C13.008 12.3133 12.6958 12.4659 12.4515 12.7352C12.2072 13.0045 12.0857 13.33 12.1009 13.6159L12.1017 13.633C12.1017 13.6343 12.1018 13.6357 12.1018 13.6374C12.2688 15.2963 12.638 16.7969 13.1897 18.1304L14.0085 17.4458C14.4059 17.1137 14.667 16.8945 14.8559 16.7065C15.0352 16.528 15.1096 16.4154 15.1525 16.3163C15.1839 16.244 15.2084 16.1688 15.2256 16.0919C15.2492 15.9865 15.2554 15.8517 15.2155 15.6019C15.1735 15.3387 15.0915 15.0078 14.9659 14.5053L14.6712 13.3265C14.6507 13.2446 14.6449 13.222 14.6397 13.204C14.4902 12.684 14.023 12.3192 13.4823 12.3003ZM13.8646 19.5213L14.9706 18.5967L14.9942 18.5769C15.3616 18.2698 15.6735 18.0091 15.9141 17.7696C16.1694 17.5155 16.3831 17.2488 16.5286 16.9133C16.5977 16.7541 16.6515 16.5888 16.6894 16.4195C16.7693 16.0625 16.7535 15.7212 16.6968 15.3655C16.6433 15.0303 16.5447 14.6359 16.4285 14.1714L16.4211 14.1415L16.1264 12.9627L16.1234 12.951C16.1073 12.8863 16.0947 12.836 16.0813 12.7894C15.7523 11.6454 14.7245 10.8429 13.5349 10.8012C13.4864 10.7995 13.4346 10.7995 13.3679 10.7995L13.3558 10.7995C13.316 10.7995 13.2871 10.7996 13.2278 10.8022C12.4746 10.8354 11.8047 11.2157 11.3405 11.7273C10.8934 12.2202 10.5862 12.8911 10.6 13.6126C10.5995 13.6192 10.5992 13.6245 10.5991 13.6282C10.5989 13.6386 10.599 13.6555 10.5991 13.6621L10.5997 13.6779L10.6005 13.6931L10.6013 13.7047L10.602 13.7122L10.6022 13.7151L10.6027 13.7202L10.6032 13.7252C10.8191 15.9382 11.3723 17.9332 12.2465 19.673C13.5457 22.2588 15.5407 24.2537 18.1265 25.553C19.8663 26.4272 21.8613 26.9804 24.0743 27.1963L24.0793 27.1968L24.0844 27.1973L24.0873 27.1975L24.0948 27.1982L24.1064 27.199L24.1216 27.1998L24.1374 27.2004C24.1407 27.2004 24.1467 27.2005 24.1532 27.2005C24.1595 27.2005 24.1662 27.2005 24.1713 27.2004C24.175 27.2003 24.1803 27.2 24.1869 27.1995C24.9084 27.2133 25.5793 26.9061 26.0722 26.459C26.5838 25.9948 26.9641 25.3249 26.9973 24.5717C26.9999 24.5124 27 24.4834 27 24.4437V24.4316C27 24.3649 27 24.3131 26.9983 24.2646C26.9566 23.075 26.1541 22.0472 25.0101 21.7182C24.9635 21.7048 24.9132 21.6922 24.8486 21.6761L24.8368 21.6731L23.658 21.3784L23.6281 21.3709C23.1635 21.2548 22.7692 21.1562 22.434 21.1027C22.0783 21.0459 21.7369 21.0302 21.38 21.1101C21.2107 21.148 21.0454 21.2018 20.8862 21.2709C20.5507 21.4164 20.284 21.6301 20.0299 21.8854C19.7904 22.126 19.5297 22.4378 19.2226 22.8052L19.2028 22.8288L18.2782 23.9349C16.4051 22.8797 14.9198 21.3944 13.8646 19.5213ZM19.6691 24.6098C21.0026 25.1615 22.5032 25.5307 24.1621 25.6976C24.1638 25.6977 24.1652 25.6978 24.1665 25.6978L24.1836 25.6986C24.4695 25.7138 24.795 25.5923 25.0643 25.348C25.3336 25.1037 25.4861 24.7915 25.4988 24.5055C25.4996 24.4878 25.4998 24.4796 25.4999 24.4743L25.5 24.4437C25.5 24.3593 25.4999 24.3359 25.4992 24.3172C25.4802 23.7765 25.1155 23.3093 24.5955 23.1598C24.5775 23.1546 24.5548 23.1488 24.473 23.1283L23.2941 22.8336C22.7917 22.708 22.4608 22.626 22.1976 22.584C21.9478 22.5441 21.813 22.5503 21.7076 22.5739C21.6307 22.5911 21.5555 22.6156 21.4832 22.647C21.3841 22.6899 21.2715 22.7643 21.093 22.9436C20.905 23.1325 20.6858 23.3936 20.3536 23.791L19.6691 24.6098ZM24.3267 27.171C24.3322 27.1695 24.3381 27.1678 24.3441 27.166C24.3592 27.1615 24.3778 27.1555 24.3987 27.1475C24.4193 27.1396 24.4456 27.1285 24.4751 27.1132C24.487 27.1069 24.5119 27.0928 24.5247 27.085C24.539 27.076 24.5685 27.0557 24.5837 27.0445C24.6005 27.0314 24.6349 27.0019 24.6523 26.9856C24.6713 26.9665 24.7092 26.9239 24.7278 26.9003C24.7474 26.8731 24.7845 26.8135 24.8017 26.7811C24.8185 26.7449 24.8469 26.668 24.8581 26.6273C24.8674 26.5845 24.8784 26.4974 24.88 26.4534C24.8791 26.41 24.8702 26.3259 24.8624 26.2853C24.8392 26.1804 24.7973 26.0974 24.7582 26.0374C24.7467 26.0205 24.7261 25.9927 24.7107 25.9731C24.8699 26.5071 24.5037 27.06 24.3267 27.171ZM24.5777 25.8455C24.5721 25.8414 24.5668 25.8376 24.5618 25.834C24.5383 25.8175 24.517 25.8045 24.5001 25.7949C24.4829 25.7852 24.4674 25.7773 24.4547 25.7712C24.4419 25.765 24.4303 25.76 24.4205 25.7558C24.4196 25.7554 24.4186 25.7551 24.4177 25.7547C24.4605 25.7757 24.5189 25.8077 24.5777 25.8455ZM10.6285 13.4728C10.7395 13.2959 11.2922 12.9297 11.8262 13.0887C11.8066 13.0733 11.7788 13.0526 11.7619 13.0412C11.7019 13.0021 11.6188 12.9602 11.5139 12.9371C11.4733 12.9293 11.3891 12.9203 11.3458 12.9195C11.3017 12.9211 11.2146 12.9322 11.1718 12.9414C11.1312 12.9527 11.0543 12.9811 11.0181 12.9979C10.9857 13.0151 10.9261 13.0522 10.899 13.0719C10.8754 13.0905 10.8329 13.1283 10.8138 13.1473C10.7974 13.1648 10.768 13.1991 10.7549 13.2159C10.7437 13.2311 10.7235 13.2606 10.7144 13.2749C10.7066 13.2877 10.6926 13.3125 10.6863 13.3245C10.671 13.354 10.6599 13.3803 10.652 13.4009C10.644 13.4218 10.6379 13.4403 10.6334 13.4554C10.6316 13.4615 10.63 13.4673 10.6285 13.4728ZM11.9538 13.2216C11.9918 13.2805 12.0237 13.3389 12.0448 13.3818C12.0444 13.3808 12.044 13.3799 12.0436 13.3789C12.0395 13.3691 12.0344 13.3576 12.0283 13.3447C12.0221 13.332 12.0143 13.3166 12.0045 13.2994C11.9949 13.2824 11.982 13.2612 11.9654 13.2376C11.9619 13.2326 11.958 13.2272 11.9538 13.2216Z" fill="#000000"/>
<path d="M18.7995 36.2005C9.29992 36.2005 1.599 28.4996 1.599 19H-0.401001C-0.401001 29.6041 8.19535 38.2005 18.7995 38.2005V36.2005ZM36 19C36 28.4996 28.2991 36.2005 18.7995 36.2005V38.2005C29.4036 38.2005 38 29.6041 38 19H36ZM18.7995 1.7995C28.2991 1.7995 36 9.50042 36 19H38C38 8.39585 29.4036 -0.2005 18.7995 -0.2005V1.7995ZM18.7995 -0.2005C8.19535 -0.2005 -0.401001 8.39585 -0.401001 19H1.599C1.599 9.50042 9.29992 1.7995 18.7995 1.7995V-0.2005Z" fill="#000000"/>
</svg>
