<svg width="24" height="25" viewBox="0 0 24 25" fill="none" xmlns="http://www.w3.org/2000/svg">
<path d="M18.1668 14.6238C17.4951 14.4768 16.9637 14.794 16.4932 15.071C16.0113 15.3564 15.0951 16.1123 14.5699 15.9189C11.881 14.793 9.35213 12.3996 8.25738 9.65416C8.06444 9.10867 8.80424 8.17098 9.08283 7.67518C9.35316 7.19523 9.65857 6.64974 9.51928 5.96154C9.3934 5.3431 7.76521 3.2362 7.18947 2.66006C6.80976 2.27949 6.42077 2.07017 6.02147 2.03634C4.52019 1.97079 2.84351 4.00793 2.54945 4.49527C1.81274 5.53445 1.81687 6.9172 2.56183 8.59384C4.35717 13.0973 11.1474 19.8937 15.5924 21.7881C16.4127 22.1782 17.1628 22.3737 17.8366 22.3737C18.4959 22.3737 19.083 22.1866 19.5876 21.8156C19.9683 21.5925 22.0536 19.8028 21.9989 18.2351C21.9659 17.8354 21.7606 17.4358 21.3912 17.0489C20.8288 16.4579 18.7704 14.7528 18.1668 14.6238Z" fill="#FF671D"/>
</svg>
