<svg width="16" height="16" viewBox="0 0 16 16" fill="none" xmlns="http://www.w3.org/2000/svg">
<path fill-rule="evenodd" clip-rule="evenodd" d="M3.16669 6.76543C3.16669 5.08723 3.77992 3.86686 4.66893 3.06199C5.56645 2.24942 6.77573 1.83331 8.00002 1.83331C9.22431 1.83332 10.4336 2.24943 11.3311 3.06201C12.2201 3.86688 12.8334 5.08724 12.8334 6.76543C12.8334 8.28931 12.1956 9.68148 11.3425 10.8596C10.4902 12.0366 9.44646 12.967 8.69469 13.5557C8.21881 13.9284 8.14018 13.9645 8.00016 13.9645C7.86015 13.9645 7.78152 13.9284 7.30562 13.5557C6.55382 12.967 5.50996 12.0366 4.65765 10.8596C3.80448 9.68149 3.16669 8.28932 3.16669 6.76543ZM13.8334 6.76543C13.8334 4.82223 13.1133 3.32653 12.0023 2.32069C10.8998 1.32256 9.4424 0.833317 8.00002 0.833313C6.55764 0.833309 5.10026 1.32254 3.99778 2.32068C2.88678 3.32652 2.16669 4.82221 2.16669 6.76543C2.16669 8.57259 2.92178 10.1675 3.84772 11.4462C4.77452 12.726 5.896 13.722 6.6891 14.3431L6.75259 14.3929C7.12905 14.689 7.47944 14.9645 8.00018 14.9645C8.52091 14.9645 8.8713 14.689 9.24775 14.3929L9.31124 14.343C10.1043 13.722 11.2257 12.726 12.1524 11.4461C13.0783 10.1675 13.8334 8.57256 13.8334 6.76543ZM6.50002 6.66667C6.50002 5.83824 7.17159 5.16667 8.00002 5.16667C8.82845 5.16667 9.50002 5.83824 9.50002 6.66667C9.50002 7.49509 8.82845 8.16667 8.00002 8.16667C7.17159 8.16667 6.50002 7.49509 6.50002 6.66667ZM8.00002 4.16667C6.61931 4.16667 5.50002 5.28595 5.50002 6.66667C5.50002 8.04738 6.61931 9.16667 8.00002 9.16667C9.38073 9.16667 10.5 8.04738 10.5 6.66667C10.5 5.28595 9.38073 4.16667 8.00002 4.16667Z" fill="#000000"/>
</svg>
