<svg width="25" height="24" viewBox="0 0 25 24" fill="none" xmlns="http://www.w3.org/2000/svg">
<g clip-path="url(#clip0_72_617)">
<path d="M8.40733 21.7502C17.468 21.7502 22.4252 14.2469 22.4252 7.7421C22.4252 7.53117 22.4205 7.31554 22.4111 7.1046C23.3754 6.4077 24.2076 5.5445 24.8686 4.55554C23.9705 4.95484 23.017 5.21563 22.0405 5.32898C23.0686 4.71315 23.8384 3.74572 24.2072 2.60601C23.24 3.1788 22.1823 3.58286 21.0794 3.80085C20.3363 3.0118 19.3538 2.48936 18.2837 2.3143C17.2137 2.13923 16.1157 2.32129 15.1596 2.83234C14.2035 3.34339 13.4425 4.15495 12.9942 5.14156C12.5459 6.12816 12.4354 7.23486 12.6797 8.29054C10.7213 8.19233 8.80539 7.68395 7.05622 6.79834C5.30705 5.91274 3.76364 4.66968 2.52606 3.14976C1.89705 4.23349 1.70458 5.51589 1.98775 6.73633C2.27092 7.95678 3.00849 9.02369 4.05056 9.72023C3.26823 9.69541 2.50305 9.48492 1.81822 9.10617V9.1671C1.81752 10.3044 2.21097 11.4068 2.93168 12.287C3.6524 13.1672 4.65589 13.7708 5.77159 13.9952C5.0469 14.1934 4.2863 14.2222 3.54865 14.0796C3.86347 15.0577 4.47602 15.9131 5.30079 16.5266C6.12556 17.14 7.1214 17.4808 8.14934 17.5015C6.40421 18.8714 4.24846 19.6144 2.02931 19.6109C1.63576 19.6103 1.2426 19.5861 0.851929 19.5387C3.10635 20.984 5.72885 21.7516 8.40733 21.7502Z" fill="white"/>
</g>
<defs>
<clipPath id="clip0_72_617">
<rect width="24.0167" height="24" fill="white" transform="translate(0.851929)"/>
</clipPath>
</defs>
</svg>
